{
  "source": "C:\\Users\\Peter\\Desktop\\stuff\\MIUN\\quantitative_research\\video_compression\\videos\\UVG\\YachtRide_1920x1080_120fps_420_8bit_YUV.y4m",
  "output": "C:\\Users\\Peter\\Desktop\\stuff\\MIUN\\quantitative_research\\video_compression\\compressed_videos\\UVG\\vp9\\4\\YachtRide_1920x1080_120fps_420_8bit_YUV_vp9.webm",
  "codec": "vp9",
  "ok": "[yuv4mpegpipe @ 0000016c938952c0] Stream #0: not enough frames to estimate rate; consider increasing probesize\nInput #0, yuv4mpegpipe, from 'C:\\Users\\Peter\\Desktop\\stuff\\MIUN\\quantitative_research\\video_compression\\videos\\UVG\\YachtRide_1920x1080_120fps_420_8bit_YUV.y4m':\n  Duration: 00:00:05.00, start: 0.000000, bitrate: 2985989 kb/s\n  Stream #0:0: Video: rawvideo (I420 / 0x30323449), yuv420p(progressive), 1920x1080, 120 fps, 120 tbr, 120 tbn\n[out#0/webm @ 0000016c93899b80] Codec AVOption b:a (set bitrate (in bits/s)) has not been used for any stream. The most likely reason is either wrong type (e.g. a video option with no video streams) or that it is a private option of some decoder which was not actually used for any stream.\nStream mapping:\n  Stream #0:0 -> #0:0 (rawvideo (native) -> vp9 (libvpx-vp9))\nPress [q] to stop, [?] for help\n[libvpx-vp9 @ 0000016c9389cec0] v1.15.2-100-g40561f514\nOutput #0, webm, to 'C:\\Users\\Peter\\Desktop\\stuff\\MIUN\\quantitative_research\\video_compression\\compressed_videos\\UVG\\vp9\\4\\YachtRide_1920x1080_120fps_420_8bit_YUV_vp9.webm':\n  Metadata:\n    encoder         : Lavf62.3.100\n  Stream #0:0: Video: vp9, yuv420p(tv, progressive), 1920x1080, q=2-31, 4000 kb/s, 120 fps, 1k tbn\n    Metadata:\n      encoder         : Lavc62.11.100 libvpx-vp9\n    Side data:\n      cpb: bitrate max/min/avg: 0/0/0 buffer size: 4000000 vbv_delay: N/A\nframe=    2 fps=0.0 q=63.0 size=       0KiB time=00:00:00.01 bitrate= 230.9kbits/s speed=0.0324x elapsed=0:00:00.51    \nframe=    8 fps=7.8 q=58.0 size=       0KiB time=00:00:00.06 bitrate=  57.7kbits/s speed=0.0647x elapsed=0:00:01.03    \nframe=   13 fps=8.3 q=57.0 size=       0KiB time=00:00:00.10 bitrate=  35.5kbits/s speed=0.0691x elapsed=0:00:01.56    \nframe=   17 fps=8.1 q=57.0 size=       0KiB time=00:00:00.14 bitrate=  27.2kbits/s speed=0.0674x elapsed=0:00:02.10    \nframe=   22 fps=8.3 q=57.0 size=       0KiB time=00:00:00.18 bitrate=  21.0kbits/s speed=0.0692x elapsed=0:00:02.64    \nframe=   26 fps=8.2 q=58.0 size=       0KiB time=00:00:00.21 bitrate=  17.8kbits/s speed=0.0681x elapsed=0:00:03.18    \nframe=   30 fps=8.1 q=58.0 size=       0KiB time=00:00:00.25 bitrate=  15.4kbits/s speed=0.0671x elapsed=0:00:03.72    \nframe=   34 fps=8.0 q=58.0 size=       0KiB time=00:00:00.28 bitrate=  13.6kbits/s speed=0.0664x elapsed=0:00:04.27    \nframe=   38 fps=7.9 q=59.0 size=       0KiB time=00:00:00.31 bitrate=  12.2kbits/s speed=0.0657x elapsed=0:00:04.82    \nframe=   42 fps=7.9 q=59.0 size=       0KiB time=00:00:00.35 bitrate=  11.0kbits/s speed=0.0655x elapsed=0:00:05.34    \nframe=   46 fps=7.9 q=51.0 size=       0KiB time=00:00:00.38 bitrate=  10.0kbits/s speed=0.0655x elapsed=0:00:05.85    \nframe=   50 fps=7.8 q=58.0 size=       0KiB time=00:00:00.41 bitrate=   9.2kbits/s speed=0.0654x elapsed=0:00:06.37    \nframe=   54 fps=7.8 q=58.0 size=       0KiB time=00:00:00.45 bitrate=   8.6kbits/s speed=0.0653x elapsed=0:00:06.88    \nframe=   58 fps=7.8 q=58.0 size=       0KiB time=00:00:00.48 bitrate=   8.0kbits/s speed=0.065x elapsed=0:00:07.43    \nframe=   62 fps=7.8 q=57.0 size=       0KiB time=00:00:00.51 bitrate=   7.4kbits/s speed=0.065x elapsed=0:00:07.95    \nframe=   66 fps=7.8 q=58.0 size=       0KiB time=00:00:00.55 bitrate=   7.0kbits/s speed=0.0649x elapsed=0:00:08.47    \nframe=   70 fps=7.8 q=58.0 size=       0KiB time=00:00:00.58 bitrate=   6.6kbits/s speed=0.0646x elapsed=0:00:09.02    \nframe=   73 fps=7.6 q=58.0 size=       0KiB time=00:00:00.60 bitrate=   6.3kbits/s speed=0.0637x elapsed=0:00:09.55    \nframe=   77 fps=7.6 q=56.0 size=       0KiB time=00:00:00.64 bitrate=   6.0kbits/s speed=0.0637x elapsed=0:00:10.07    \nframe=   81 fps=7.6 q=56.0 size=       0KiB time=00:00:00.67 bitrate=   5.7kbits/s speed=0.0637x elapsed=0:00:10.59    \nframe=   85 fps=7.7 q=57.0 size=       0KiB time=00:00:00.70 bitrate=   5.4kbits/s speed=0.0638x elapsed=0:00:11.10    \nframe=   89 fps=7.7 q=44.0 size=       0KiB time=00:00:00.74 bitrate=   5.2kbits/s speed=0.0638x elapsed=0:00:11.62    \nframe=   93 fps=7.6 q=56.0 size=       0KiB time=00:00:00.77 bitrate=   5.0kbits/s speed=0.0637x elapsed=0:00:12.16    \nframe=   97 fps=7.6 q=57.0 size=       0KiB time=00:00:00.80 bitrate=   4.8kbits/s speed=0.0637x elapsed=0:00:12.69    \nframe=  101 fps=7.6 q=57.0 size=       0KiB time=00:00:00.84 bitrate=   4.6kbits/s speed=0.0637x elapsed=0:00:13.21    \nframe=  105 fps=7.6 q=58.0 size=       0KiB time=00:00:00.87 bitrate=   4.4kbits/s speed=0.0637x elapsed=0:00:13.73    \nframe=  109 fps=7.6 q=57.0 size=       0KiB time=00:00:00.90 bitrate=   4.2kbits/s speed=0.0637x elapsed=0:00:14.26    \nframe=  113 fps=7.6 q=58.0 size=       0KiB time=00:00:00.94 bitrate=   4.1kbits/s speed=0.0637x elapsed=0:00:14.79    \nframe=  117 fps=7.6 q=57.0 size=       0KiB time=00:00:00.97 bitrate=   3.9kbits/s speed=0.0637x elapsed=0:00:15.30    \nframe=  120 fps=7.6 q=56.0 size=       0KiB time=00:00:01.00 bitrate=   3.8kbits/s speed=0.0631x elapsed=0:00:15.84    \nframe=  124 fps=7.6 q=57.0 size=       0KiB time=00:00:01.03 bitrate=   3.7kbits/s speed=0.0632x elapsed=0:00:16.36    \nframe=  128 fps=7.6 q=57.0 size=       0KiB time=00:00:01.06 bitrate=   3.6kbits/s speed=0.0632x elapsed=0:00:16.88    \nframe=  132 fps=7.6 q=55.0 size=     512KiB time=00:00:01.10 bitrate=3813.0kbits/s speed=0.0632x elapsed=0:00:17.39    \nframe=  137 fps=7.6 q=56.0 size=     512KiB time=00:00:01.14 bitrate=3673.8kbits/s speed=0.0637x elapsed=0:00:17.91    \nframe=  141 fps=7.6 q=57.0 size=     512KiB time=00:00:01.17 bitrate=3569.6kbits/s speed=0.0637x elapsed=0:00:18.44    \nframe=  145 fps=7.6 q=57.0 size=     512KiB time=00:00:01.20 bitrate=3471.1kbits/s speed=0.0637x elapsed=0:00:18.97    \nframe=  149 fps=7.6 q=57.0 size=     512KiB time=00:00:01.24 bitrate=3378.0kbits/s speed=0.0637x elapsed=0:00:19.49    \nframe=  154 fps=7.7 q=58.0 size=     512KiB time=00:00:01.28 bitrate=3268.3kbits/s speed=0.0641x elapsed=0:00:20.01    \nframe=  158 fps=7.7 q=58.0 size=     512KiB time=00:00:01.31 bitrate=3185.5kbits/s speed=0.0641x elapsed=0:00:20.54    \nframe=  162 fps=7.7 q=57.0 size=     512KiB time=00:00:01.35 bitrate=3106.9kbits/s speed=0.064x elapsed=0:00:21.10    \nframe=  165 fps=7.6 q=57.0 size=     512KiB time=00:00:01.37 bitrate=3050.4kbits/s speed=0.0636x elapsed=0:00:21.61    \nframe=  169 fps=7.6 q=58.0 size=     512KiB time=00:00:01.40 bitrate=2978.2kbits/s speed=0.0636x elapsed=0:00:22.13    \nframe=  173 fps=7.6 q=58.0 size=     512KiB time=00:00:01.44 bitrate=2909.3kbits/s speed=0.0636x elapsed=0:00:22.65    \nframe=  177 fps=7.6 q=56.0 size=     512KiB time=00:00:01.47 bitrate=2843.6kbits/s speed=0.0636x elapsed=0:00:23.18    \nframe=  181 fps=7.6 q=57.0 size=     512KiB time=00:00:01.50 bitrate=2780.8kbits/s speed=0.0636x elapsed=0:00:23.71    \nframe=  185 fps=7.6 q=57.0 size=     512KiB time=00:00:01.54 bitrate=2720.6kbits/s speed=0.0636x elapsed=0:00:24.24    \nframe=  188 fps=7.6 q=57.0 size=     512KiB time=00:00:01.56 bitrate=2677.2kbits/s speed=0.0632x elapsed=0:00:24.77    \nframe=  192 fps=7.6 q=56.0 size=     512KiB time=00:00:01.60 bitrate=2621.4kbits/s speed=0.0632x elapsed=0:00:25.30    \nframe=  196 fps=7.6 q=57.0 size=     512KiB time=00:00:01.63 bitrate=2567.9kbits/s speed=0.0633x elapsed=0:00:25.81    \nframe=  200 fps=7.6 q=57.0 size=     512KiB time=00:00:01.66 bitrate=2516.6kbits/s speed=0.0632x elapsed=0:00:26.36    \nframe=  203 fps=7.5 q=57.0 size=     512KiB time=00:00:01.69 bitrate=2479.4kbits/s speed=0.0629x elapsed=0:00:26.89    \nframe=  208 fps=7.6 q=58.0 size=     512KiB time=00:00:01.73 bitrate=2419.8kbits/s speed=0.0633x elapsed=0:00:27.39    \nframe=  212 fps=7.6 q=59.0 size=     512KiB time=00:00:01.76 bitrate=2374.1kbits/s speed=0.0633x elapsed=0:00:27.92    \nframe=  216 fps=7.6 q=59.0 size=     512KiB time=00:00:01.80 bitrate=2330.2kbits/s speed=0.0633x elapsed=0:00:28.45    \nframe=  220 fps=7.6 q=57.0 size=     512KiB time=00:00:01.83 bitrate=2287.8kbits/s speed=0.0633x elapsed=0:00:28.97    \nframe=  224 fps=7.6 q=59.0 size=     512KiB time=00:00:01.86 bitrate=2246.9kbits/s speed=0.0633x elapsed=0:00:29.50    \nframe=  228 fps=7.6 q=59.0 size=     512KiB time=00:00:01.90 bitrate=2207.5kbits/s speed=0.0633x elapsed=0:00:30.03    \nframe=  231 fps=7.6 q=59.0 size=     512KiB time=00:00:01.92 bitrate=2178.9kbits/s speed=0.063x elapsed=0:00:30.57    \nframe=  236 fps=7.6 q=59.0 size=     512KiB time=00:00:01.96 bitrate=2132.7kbits/s speed=0.0632x elapsed=0:00:31.09    \nframe=  240 fps=7.6 q=59.0 size=     512KiB time=00:00:02.00 bitrate=2097.2kbits/s speed=0.0632x elapsed=0:00:31.64    \nframe=  244 fps=7.6 q=59.0 size=     512KiB time=00:00:02.03 bitrate=2062.8kbits/s speed=0.0632x elapsed=0:00:32.18    \nframe=  248 fps=7.6 q=56.0 size=     512KiB time=00:00:02.06 bitrate=2029.5kbits/s speed=0.0631x elapsed=0:00:32.76    \nframe=  252 fps=7.6 q=58.0 size=     512KiB time=00:00:02.10 bitrate=1997.3kbits/s speed=0.0631x elapsed=0:00:33.29    \nframe=  256 fps=7.6 q=58.0 size=     512KiB time=00:00:02.13 bitrate=1966.1kbits/s speed=0.0631x elapsed=0:00:33.81    \nframe=  260 fps=7.6 q=59.0 size=    1024KiB time=00:00:02.16 bitrate=3871.7kbits/s speed=0.0631x elapsed=0:00:34.35    \nframe=  264 fps=7.6 q=48.0 size=    1024KiB time=00:00:02.20 bitrate=3813.0kbits/s speed=0.0631x elapsed=0:00:34.88    \nframe=  268 fps=7.6 q=59.0 size=    1024KiB time=00:00:02.23 bitrate=3756.1kbits/s speed=0.0631x elapsed=0:00:35.40    \nframe=  272 fps=7.6 q=59.0 size=    1024KiB time=00:00:02.26 bitrate=3700.9kbits/s speed=0.0631x elapsed=0:00:35.95    \nframe=  276 fps=7.6 q=59.0 size=    1024KiB time=00:00:02.30 bitrate=3647.2kbits/s speed=0.0631x elapsed=0:00:36.46    \nframe=  280 fps=7.6 q=58.0 size=    1024KiB time=00:00:02.33 bitrate=3595.1kbits/s speed=0.0631x elapsed=0:00:36.99    \nframe=  284 fps=7.6 q=59.0 size=    1024KiB time=00:00:02.36 bitrate=3544.5kbits/s speed=0.0631x elapsed=0:00:37.50    \nframe=  288 fps=7.6 q=58.0 size=    1024KiB time=00:00:02.40 bitrate=3495.3kbits/s speed=0.0631x elapsed=0:00:38.05    \nframe=  291 fps=7.5 q=59.0 size=    1024KiB time=00:00:02.42 bitrate=3459.2kbits/s speed=0.0629x elapsed=0:00:38.58    \nframe=  296 fps=7.6 q=58.0 size=    1024KiB time=00:00:02.46 bitrate=3400.8kbits/s speed=0.063x elapsed=0:00:39.12    \nframe=  299 fps=7.5 q=48.0 size=    1024KiB time=00:00:02.49 bitrate=3366.7kbits/s speed=0.0628x elapsed=0:00:39.65    \nframe=  303 fps=7.5 q=58.0 size=    1024KiB time=00:00:02.52 bitrate=3322.2kbits/s speed=0.0628x elapsed=0:00:40.18    \nframe=  307 fps=7.5 q=59.0 size=    1024KiB time=00:00:02.55 bitrate=3278.9kbits/s speed=0.0629x elapsed=0:00:40.70    \nframe=  311 fps=7.5 q=59.0 size=    1024KiB time=00:00:02.59 bitrate=3236.8kbits/s speed=0.0629x elapsed=0:00:41.22    \nframe=  315 fps=7.5 q=58.0 size=    1024KiB time=00:00:02.62 bitrate=3195.7kbits/s speed=0.0629x elapsed=0:00:41.75    \nframe=  319 fps=7.5 q=59.0 size=    1024KiB time=00:00:02.65 bitrate=3155.6kbits/s speed=0.0628x elapsed=0:00:42.30    \nframe=  323 fps=7.5 q=59.0 size=    1024KiB time=00:00:02.69 bitrate=3116.5kbits/s speed=0.0628x elapsed=0:00:42.83    \nframe=  326 fps=7.5 q=59.0 size=    1024KiB time=00:00:02.71 bitrate=3087.8kbits/s speed=0.0626x elapsed=0:00:43.37    \nframe=  331 fps=7.5 q=59.0 size=    1024KiB time=00:00:02.75 bitrate=3041.2kbits/s speed=0.0628x elapsed=0:00:43.89    \nframe=  334 fps=7.5 q=48.0 size=    1024KiB time=00:00:02.78 bitrate=3013.9kbits/s speed=0.0627x elapsed=0:00:44.42    \nframe=  338 fps=7.5 q=59.0 size=    1024KiB time=00:00:02.81 bitrate=2978.2kbits/s speed=0.0627x elapsed=0:00:44.93    \nframe=  341 fps=7.5 q=48.0 size=    1024KiB time=00:00:02.84 bitrate=2952.0kbits/s speed=0.0625x elapsed=0:00:45.44    \nframe=  345 fps=7.5 q=59.0 size=    1024KiB time=00:00:02.87 bitrate=2917.8kbits/s speed=0.0625x elapsed=0:00:45.96    \nframe=  347 fps=7.5 q=59.0 size=    1024KiB time=00:00:02.89 bitrate=2901.0kbits/s speed=0.0622x elapsed=0:00:46.51    \nframe=  350 fps=7.4 q=58.0 size=    1024KiB time=00:00:02.91 bitrate=2876.1kbits/s speed=0.0619x elapsed=0:00:47.08    \nframe=  353 fps=7.4 q=59.0 size=    1024KiB time=00:00:02.93 bitrate=2859.8kbits/s speed=0.0616x elapsed=0:00:47.63    \nframe=  354 fps=7.3 q=59.0 size=    1024KiB time=00:00:02.95 bitrate=2843.6kbits/s speed=0.0612x elapsed=0:00:48.23    \nframe=  357 fps=7.3 q=58.0 size=    1024KiB time=00:00:02.97 bitrate=2819.7kbits/s speed=0.061x elapsed=0:00:48.81    \nframe=  360 fps=7.3 q=59.0 size=    1024KiB time=00:00:03.00 bitrate=2796.2kbits/s speed=0.0608x elapsed=0:00:49.38    \nframe=  361 fps=7.2 q=59.0 size=    1024KiB time=00:00:03.00 bitrate=2788.5kbits/s speed=0.0603x elapsed=0:00:49.89    \nframe=  364 fps=7.2 q=56.0 size=    1024KiB time=00:00:03.03 bitrate=2765.5kbits/s speed=0.0601x elapsed=0:00:50.45    \nframe=  366 fps=7.2 q=58.0 size=    1024KiB time=00:00:03.05 bitrate=2750.4kbits/s speed=0.0598x elapsed=0:00:51.02    \nframe=  369 fps=7.2 q=58.0 size=    1024KiB time=00:00:03.07 bitrate=2728.0kbits/s speed=0.0596x elapsed=0:00:51.57    \nframe=  372 fps=7.1 q=59.0 size=    1024KiB time=00:00:03.09 bitrate=2713.3kbits/s speed=0.0593x elapsed=0:00:52.14    \nframe=  374 fps=7.1 q=61.0 size=    1024KiB time=00:00:03.11 bitrate=2691.5kbits/s speed=0.0591x elapsed=0:00:52.74    \nframe=  377 fps=7.1 q=59.0 size=    1024KiB time=00:00:03.14 bitrate=2670.1kbits/s speed=0.059x elapsed=0:00:53.27    \nframe=  379 fps=7.0 q=49.0 size=    1024KiB time=00:00:03.15 bitrate=2656.0kbits/s speed=0.0587x elapsed=0:00:53.81    \nframe=  382 fps=7.0 q=59.0 size=    1024KiB time=00:00:03.18 bitrate=2635.2kbits/s speed=0.0585x elapsed=0:00:54.37    \nframe=  384 fps=7.0 q=60.0 size=    1024KiB time=00:00:03.20 bitrate=2621.4kbits/s speed=0.0583x elapsed=0:00:54.91    \nframe=  387 fps=7.0 q=58.0 size=    1536KiB time=00:00:03.22 bitrate=3901.7kbits/s speed=0.0581x elapsed=0:00:55.49    \nframe=  390 fps=7.0 q=59.0 size=    1536KiB time=00:00:03.25 bitrate=3871.7kbits/s speed=0.058x elapsed=0:00:56.02    \nframe=  391 fps=6.9 q=59.0 size=    1536KiB time=00:00:03.25 bitrate=3861.8kbits/s speed=0.0576x elapsed=0:00:56.58    \nframe=  394 fps=6.9 q=58.0 size=    1536KiB time=00:00:03.28 bitrate=3832.4kbits/s speed=0.0575x elapsed=0:00:57.12    \nframe=  396 fps=6.9 q=59.0 size=    1536KiB time=00:00:03.30 bitrate=3813.0kbits/s speed=0.0572x elapsed=0:00:57.66    \nframe=  398 fps=6.8 q=59.0 size=    1536KiB time=00:00:03.31 bitrate=3793.8kbits/s speed=0.057x elapsed=0:00:58.19    \nframe=  401 fps=6.8 q=58.0 size=    1536KiB time=00:00:03.34 bitrate=3765.5kbits/s speed=0.0569x elapsed=0:00:58.76    \nframe=  403 fps=6.8 q=59.0 size=    1536KiB time=00:00:03.35 bitrate=3746.8kbits/s speed=0.0566x elapsed=0:00:59.31    \nframe=  405 fps=6.8 q=59.0 size=    1536KiB time=00:00:03.37 bitrate=3728.3kbits/s speed=0.0564x elapsed=0:00:59.86    \nframe=  408 fps=6.8 q=57.0 size=    1536KiB time=00:00:03.40 bitrate=3700.9kbits/s speed=0.0563x elapsed=0:01:00.42    \nframe=  410 fps=6.7 q=59.0 size=    1536KiB time=00:00:03.41 bitrate=3682.8kbits/s speed=0.056x elapsed=0:01:00.98    \nframe=  412 fps=6.7 q=59.0 size=    1536KiB time=00:00:03.43 bitrate=3664.9kbits/s speed=0.0557x elapsed=0:01:01.58    \nframe=  415 fps=6.7 q=57.0 size=    1536KiB time=00:00:03.45 bitrate=3638.4kbits/s speed=0.0556x elapsed=0:01:02.14    \nframe=  418 fps=6.7 q=59.0 size=    1536KiB time=00:00:03.48 bitrate=3612.3kbits/s speed=0.0556x elapsed=0:01:02.69    \nframe=  421 fps=6.7 q=60.0 size=    1536KiB time=00:00:03.50 bitrate=3586.6kbits/s speed=0.0554x elapsed=0:01:03.27    \nframe=  424 fps=6.6 q=59.0 size=    1536KiB time=00:00:03.53 bitrate=3561.2kbits/s speed=0.0554x elapsed=0:01:03.81    \nframe=  427 fps=6.6 q=46.0 size=    1536KiB time=00:00:03.55 bitrate=3536.2kbits/s speed=0.0553x elapsed=0:01:04.33    \nframe=  431 fps=6.6 q=57.0 size=    1536KiB time=00:00:03.59 bitrate=3503.4kbits/s speed=0.0554x elapsed=0:01:04.86    \nframe=  434 fps=6.6 q=58.0 size=    1536KiB time=00:00:03.61 bitrate=3479.1kbits/s speed=0.0553x elapsed=0:01:05.39    \nframe=  438 fps=6.6 q=58.0 size=    1536KiB time=00:00:03.65 bitrate=3447.4kbits/s speed=0.0554x elapsed=0:01:05.91    \nframe=  441 fps=6.6 q=58.0 size=    1536KiB time=00:00:03.67 bitrate=3423.9kbits/s speed=0.0553x elapsed=0:01:06.45    \nframe=  445 fps=6.6 q=59.0 size=    1536KiB time=00:00:03.70 bitrate=3393.1kbits/s speed=0.0554x elapsed=0:01:06.97    \nframe=  449 fps=6.7 q=59.0 size=    1536KiB time=00:00:03.74 bitrate=3362.9kbits/s speed=0.0554x elapsed=0:01:07.51    \nframe=  452 fps=6.6 q=59.0 size=    1536KiB time=00:00:03.76 bitrate=3340.6kbits/s speed=0.0554x elapsed=0:01:08.04    \nframe=  456 fps=6.7 q=59.0 size=    1536KiB time=00:00:03.80 bitrate=3311.3kbits/s speed=0.0554x elapsed=0:01:08.55    \nframe=  460 fps=6.7 q=58.0 size=    1536KiB time=00:00:03.83 bitrate=3282.5kbits/s speed=0.0555x elapsed=0:01:09.10    \nframe=  463 fps=6.6 q=59.0 size=    1536KiB time=00:00:03.85 bitrate=3261.2kbits/s speed=0.0554x elapsed=0:01:09.62    \nframe=  467 fps=6.7 q=59.0 size=    1536KiB time=00:00:03.89 bitrate=3233.3kbits/s speed=0.0555x elapsed=0:01:10.15    \nframe=  471 fps=6.7 q=59.0 size=    1536KiB time=00:00:03.92 bitrate=3205.8kbits/s speed=0.0555x elapsed=0:01:10.68    \nframe=  474 fps=6.7 q=57.0 size=    1536KiB time=00:00:03.95 bitrate=3185.5kbits/s speed=0.0555x elapsed=0:01:11.22    \nframe=  478 fps=6.7 q=59.0 size=    1536KiB time=00:00:03.98 bitrate=3158.9kbits/s speed=0.0555x elapsed=0:01:11.73    \nframe=  482 fps=6.7 q=60.0 size=    1536KiB time=00:00:04.01 bitrate=3132.7kbits/s speed=0.0556x elapsed=0:01:12.26    \nframe=  486 fps=6.7 q=59.0 size=    1536KiB time=00:00:04.05 bitrate=3106.9kbits/s speed=0.0556x elapsed=0:01:12.78    \nframe=  490 fps=6.7 q=59.0 size=    1536KiB time=00:00:04.08 bitrate=3081.5kbits/s speed=0.0557x elapsed=0:01:13.32    \nframe=  494 fps=6.7 q=60.0 size=    1536KiB time=00:00:04.11 bitrate=3056.6kbits/s speed=0.0557x elapsed=0:01:13.85    \nframe=  498 fps=6.7 q=60.0 size=    1536KiB time=00:00:04.15 bitrate=3032.0kbits/s speed=0.0558x elapsed=0:01:14.37    \nframe=  502 fps=6.7 q=57.0 size=    1536KiB time=00:00:04.17 bitrate=3013.9kbits/s speed=0.0558x elapsed=0:01:14.88    \nframe=  506 fps=6.7 q=59.0 size=    1536KiB time=00:00:04.21 bitrate=2984.1kbits/s speed=0.0559x elapsed=0:01:15.44    \nframe=  510 fps=6.7 q=60.0 size=    1536KiB time=00:00:04.25 bitrate=2960.7kbits/s speed=0.0559x elapsed=0:01:15.96    \nframe=  514 fps=6.7 q=60.0 size=    2048KiB time=00:00:04.28 bitrate=3916.9kbits/s speed=0.056x elapsed=0:01:16.48    \nframe=  518 fps=6.7 q=60.0 size=    2048KiB time=00:00:04.31 bitrate=3886.6kbits/s speed=0.0561x elapsed=0:01:17.00    \nframe=  523 fps=6.7 q=60.0 size=    2048KiB time=00:00:04.35 bitrate=3849.5kbits/s speed=0.0562x elapsed=0:01:17.53    \nframe=  527 fps=6.7 q=60.0 size=    2048KiB time=00:00:04.39 bitrate=3820.2kbits/s speed=0.0562x elapsed=0:01:18.07    \nframe=  531 fps=6.8 q=59.0 size=    2048KiB time=00:00:04.42 bitrate=3791.5kbits/s speed=0.0563x elapsed=0:01:18.61    \nframe=  535 fps=6.8 q=60.0 size=    2048KiB time=00:00:04.45 bitrate=3763.1kbits/s speed=0.0563x elapsed=0:01:19.14    \nframe=  539 fps=6.8 q=60.0 size=    2048KiB time=00:00:04.49 bitrate=3735.2kbits/s speed=0.0564x elapsed=0:01:19.68    \nframe=  542 fps=6.8 q=59.0 size=    2048KiB time=00:00:04.51 bitrate=3714.5kbits/s speed=0.0563x elapsed=0:01:20.19    \nframe=  547 fps=6.8 q=58.0 size=    2048KiB time=00:00:04.55 bitrate=3687.3kbits/s speed=0.0564x elapsed=0:01:20.71    \nframe=  551 fps=6.8 q=59.0 size=    2048KiB time=00:00:04.59 bitrate=3653.8kbits/s speed=0.0565x elapsed=0:01:21.29    \nframe=  555 fps=6.8 q=59.0 size=    2048KiB time=00:00:04.62 bitrate=3627.5kbits/s speed=0.0565x elapsed=0:01:21.83    \nframe=  558 fps=6.8 q=42.0 size=    2048KiB time=00:00:04.65 bitrate=3608.0kbits/s speed=0.0565x elapsed=0:01:22.35    \nframe=  562 fps=6.8 q=58.0 size=    2048KiB time=00:00:04.68 bitrate=3582.3kbits/s speed=0.0565x elapsed=0:01:22.86    \nframe=  567 fps=6.8 q=63.0 size=    2048KiB time=00:00:04.72 bitrate=3550.7kbits/s speed=0.0567x elapsed=0:01:23.39    \nframe=  571 fps=6.8 q=63.0 size=    2048KiB time=00:00:04.75 bitrate=3525.9kbits/s speed=0.0567x elapsed=0:01:23.93    \nframe=  574 fps=6.8 q=63.0 size=    2048KiB time=00:00:04.78 bitrate=3507.4kbits/s speed=0.0566x elapsed=0:01:24.46    \nframe=  576 fps=6.8 q=60.0 size=    2048KiB time=00:00:04.80 bitrate=3495.3kbits/s speed=0.0565x elapsed=0:01:25.01    \nframe=  576 fps=6.7 q=60.0 size=    2048KiB time=00:00:04.80 bitrate=3495.3kbits/s speed=0.0561x elapsed=0:01:25.52    \nframe=  576 fps=6.7 q=60.0 size=    2048KiB time=00:00:04.80 bitrate=3495.3kbits/s speed=0.0558x elapsed=0:01:26.04    \nframe=  576 fps=6.7 q=60.0 size=    2048KiB time=00:00:04.80 bitrate=3495.3kbits/s speed=0.0555x elapsed=0:01:26.56    \nframe=  576 fps=6.6 q=60.0 size=    2048KiB time=00:00:04.80 bitrate=3495.3kbits/s speed=0.0551x elapsed=0:01:27.10    \nframe=  576 fps=6.6 q=60.0 size=    2048KiB time=00:00:04.80 bitrate=3495.3kbits/s speed=0.0548x elapsed=0:01:27.63    \n[out#0/webm @ 0000016c93899b80] video:2581KiB audio:0KiB subtitle:0KiB other streams:0KiB global headers:0KiB muxing overhead: 0.183874%\nframe=  600 fps=6.8 q=55.0 Lsize=    2585KiB time=00:00:05.00 bitrate=4235.9kbits/s speed=0.0569x elapsed=0:01:27.83    \n",
  "seconds": 87.96762871742249,
  "probe_out": {}
}